<svg width="1094" height="1094" viewBox="0 0 1094 1094" fill="none" xmlns="http://www.w3.org/2000/svg">
<circle cx="547" cy="547" r="547" fill="#0E48A0"/>
<path d="M305.598 806.464C308.347 816.247 312.234 824.985 317.258 832.678C322.282 840.371 328.68 846.83 336.454 852.053C344.321 857.182 353.848 860.981 365.034 863.451C363.707 864.685 362.285 866.3 360.768 868.294C359.346 870.289 357.924 872.331 356.502 874.421C355.175 876.51 354.085 878.41 353.232 880.119C341.098 876.7 330.908 871.856 322.661 865.588C314.414 859.319 307.589 851.531 302.186 842.223C296.877 832.915 292.469 822.136 288.962 809.883L305.598 806.464ZM238.2 799.341H356.502V816.864H238.2V799.341ZM233.792 755.604H360.341V773.127H233.792V755.604ZM286.687 760.305H304.887V795.352C304.887 801.336 304.461 807.604 303.608 814.158C302.755 820.616 301.096 827.027 298.631 833.39C296.166 839.659 292.564 845.69 287.825 851.484C283.085 857.277 276.829 862.596 269.055 867.44C261.377 872.379 251.851 876.652 240.475 880.262C239.812 878.742 238.864 877.032 237.632 875.133C236.399 873.233 235.072 871.334 233.65 869.434C232.323 867.63 231.043 866.11 229.811 864.875C239.954 861.931 248.438 858.417 255.263 854.333C262.183 850.154 267.728 845.642 271.899 840.799C276.07 835.955 279.198 830.968 281.284 825.84C283.369 820.711 284.791 815.535 285.55 810.311C286.308 804.992 286.687 799.958 286.687 795.21V760.305Z" fill="white"/>
<path d="M423.189 776.831V782.245H454.329V776.831H423.189ZM423.189 792.503V798.059H454.329V792.503H423.189ZM423.189 761.16V766.574H454.329V761.16H423.189ZM406.838 750.333H471.392V808.744H406.838V750.333ZM381.812 758.026H398.448V821.138H381.812V758.026ZM374.134 834.673H423.758V849.062H374.134V834.673ZM453.476 834.673H504.522V849.062H453.476V834.673ZM476.226 842.366H493.005V879.834H476.226V842.366ZM388.637 839.089H404.136C403.946 845.832 403.235 851.863 402.003 857.182C400.866 862.501 398.733 867.107 395.605 871.001C392.571 874.895 387.974 878.172 381.812 880.831C381.243 879.502 380.438 878.03 379.395 876.415C378.447 874.8 377.357 873.233 376.125 871.714C374.987 870.194 373.85 868.912 372.712 867.867C377.357 866.063 380.769 863.878 382.95 861.314C385.13 858.749 386.599 855.615 387.358 851.911C388.116 848.207 388.542 843.933 388.637 839.089ZM381.812 813.873H432.005V879.834H415.653V827.549H381.812V813.873ZM479.354 757.883H496.133V827.407H451.059V813.873H479.354V757.883ZM445.087 813.873H461.581V879.977H445.087V813.873Z" fill="white"/>
<path d="M540.951 848.132C536.878 848.132 533.158 847.137 529.792 845.147C526.426 843.124 523.733 840.426 521.713 837.053C519.727 833.68 518.734 829.953 518.734 825.872C518.734 821.757 519.727 818.03 521.713 814.691C523.733 811.319 526.426 808.637 529.792 806.647C533.158 804.624 536.878 803.612 540.951 803.612C545.058 803.612 548.777 804.624 552.11 806.647C555.476 808.637 558.152 811.319 560.139 814.691C562.158 818.03 563.168 821.757 563.168 825.872C563.168 829.953 562.158 833.68 560.139 837.053C558.152 840.426 555.476 843.124 552.11 845.147C548.777 847.137 545.058 848.132 540.951 848.132Z" fill="white"/>
<path d="M606.851 775.122H677.093V789.938H606.851V775.122ZM610.69 803.473H673.965V817.862H610.69V803.473ZM605.429 834.815H679.51V848.777H605.429V834.815ZM634.009 779.823H649.792V842.223H634.009V779.823ZM654.343 822.42L665.149 816.864C667.234 818.859 669.415 821.186 671.69 823.845C673.965 826.41 675.671 828.689 676.809 830.684L665.433 837.094C664.296 835.1 662.637 832.726 660.457 829.971C658.371 827.217 656.333 824.7 654.343 822.42ZM582.394 751.757H702.545V879.692H684.345V767.429H599.742V879.692H582.394V751.757ZM591.921 856.897H692.734V872.711H591.921V856.897Z" fill="white"/>
<path d="M723.162 751.9H758.994V767.144H739.514V879.692H723.162V751.9ZM755.155 751.9H758.283L760.843 751.188L773.213 757.599C771.128 763.582 768.9 769.946 766.53 776.689C764.255 783.337 762.028 789.416 759.847 794.925C764.398 800.623 767.384 805.989 768.805 811.023C770.227 815.962 770.938 820.568 770.938 824.842C770.938 829.401 770.417 833.248 769.374 836.382C768.331 839.516 766.53 841.938 763.971 843.648C762.739 844.503 761.364 845.168 759.847 845.642C758.426 846.117 756.861 846.497 755.155 846.782C753.828 846.972 752.264 847.115 750.463 847.21C748.757 847.21 747.003 847.162 745.202 847.067C745.202 845.073 744.823 842.651 744.064 839.801C743.401 836.952 742.406 834.483 741.078 832.393C742.406 832.488 743.638 832.583 744.775 832.678C745.913 832.678 746.908 832.631 747.761 832.536C749.468 832.536 750.842 832.203 751.885 831.538C752.738 830.873 753.354 829.781 753.733 828.262C754.207 826.742 754.444 824.937 754.444 822.848C754.444 819.429 753.781 815.487 752.454 811.023C751.221 806.559 748.378 801.81 743.922 796.777C745.06 793.642 746.15 790.223 747.193 786.519C748.235 782.72 749.278 778.968 750.321 775.264C751.364 771.56 752.311 768.094 753.165 764.864C754.018 761.54 754.681 758.786 755.155 756.601V751.9ZM780.039 754.892H842.744V770.848H780.039V754.892ZM773.498 788.941H850.707V804.897H773.498V788.941ZM801.367 796.919H818.714V860.316C818.714 864.495 818.288 867.867 817.434 870.432C816.676 873.091 814.922 875.133 812.173 876.557C809.519 877.982 806.391 878.837 802.789 879.122C799.282 879.502 795.111 879.692 790.276 879.692C789.992 877.222 789.376 874.278 788.428 870.859C787.48 867.535 786.484 864.59 785.442 862.026C788.286 862.121 790.987 862.168 793.547 862.168C796.201 862.168 798.002 862.168 798.95 862.168C799.898 862.168 800.514 862.026 800.798 861.741C801.177 861.456 801.367 860.886 801.367 860.031V796.919ZM823.406 822.278L837.625 817.434C839.806 822.183 841.844 827.312 843.74 832.821C845.73 838.234 847.484 843.505 849.001 848.634C850.517 853.668 851.56 858.179 852.129 862.168L836.772 867.725C836.298 863.736 835.398 859.177 834.071 854.048C832.744 848.824 831.179 843.458 829.378 837.949C827.577 832.346 825.587 827.122 823.406 822.278ZM779.754 818.004L794.968 821.566C793.641 827.169 791.982 832.726 789.992 838.234C788.001 843.743 785.868 848.967 783.593 853.905C781.318 858.844 778.948 863.213 776.484 867.012C775.441 866.157 774.114 865.16 772.502 864.021C770.891 862.881 769.232 861.789 767.526 860.744C765.819 859.699 764.35 858.844 763.118 858.179C766.72 853.241 769.943 847.162 772.787 839.944C775.725 832.726 778.048 825.412 779.754 818.004Z" fill="white"/>
<path d="M679.626 521.166C760.877 492.334 942 439.757 942 439.757C942 439.757 942 558.479 891.218 611.055C840.436 663.632 881.061 729.392 881.061 729.392H303.838C329.229 707.729 324.21 705.481 308.916 695.857C302.145 689.073 297.067 678.896 291.989 658.544L679.626 521.166Z" fill="white"/>
<path d="M449.413 590.703L537.436 558.425L537.436 477.304L449.413 512.355V590.703Z" fill="white"/>
<path d="M551.024 553.391L676.24 509.294V471.982L551.024 516.734V553.391Z" fill="white"/>
<path d="M324.151 636.496L436.583 595.099V458.376L339.613 490.986V538.127C359.501 591.175 339.449 591.451 324.151 612.752V636.496Z" fill="white"/>
<path d="M369.601 277.295L373.182 286.64L377.488 297.879L415.415 283.292L410.978 271.71L407.529 262.708L401.208 265.139C395.193 260.584 395.977 256.286 393.561 249.913L395.141 249.305C396.71 233.809 393.057 226.853 382.402 216.054L366.727 213L357.117 225.779C355.65 241.242 359.4 248.153 369.856 259.03L371.437 258.422C374.257 264.766 377.353 267.501 375.923 274.864L369.601 277.295Z" fill="white"/>
<path d="M207.162 461.072L215.008 464.572L227.265 470.04L243.789 432.855L230.588 426.966L223.686 423.887L220.932 430.084C213.464 431.125 210.985 427.53 204.779 424.736L205.468 423.186C195.641 411.117 188.148 408.787 172.993 408.7L159.753 417.646L161.977 433.49C171.853 445.464 179.381 447.693 194.452 447.976L195.14 446.427C201.611 448.914 205.731 448.656 209.916 454.875L207.162 461.072Z" fill="white"/>
<path d="M216.171 675.614L222.206 673.293L236.715 667.713L222.156 629.712L207.932 635.182L201.612 637.613L204.038 643.947C199.492 649.973 195.202 649.187 188.842 651.608L188.235 650.025C172.768 648.453 165.826 652.113 155.049 662.788L152 678.494L164.755 688.122C180.188 689.593 187.085 685.835 197.941 675.359L197.334 673.775C203.665 670.949 206.396 667.848 213.744 669.281L216.171 675.614Z" fill="white"/>
<path d="M620.867 271.661L617.435 279.383L611.916 291.803L649.03 308.359L654.039 297.086L657.98 288.217L651.794 285.457C650.756 277.976 654.344 275.492 657.133 269.274L658.68 269.963C670.725 260.117 673.051 252.61 673.138 237.426L664.209 224.161L648.396 226.389C636.445 236.283 634.22 243.827 633.937 258.926L635.484 259.616C633.001 266.1 633.259 270.227 627.052 274.42L620.867 271.661Z" fill="white"/>
<path d="M784.807 424.326L776.792 427.408L764.263 432.227L778.821 470.228L792.312 465.039L799.365 462.327L796.939 455.993C801.485 449.967 805.775 450.753 812.135 448.332L812.742 449.915C828.209 451.487 835.151 447.827 845.928 437.151L848.977 421.445L836.223 411.817C820.789 410.347 813.892 414.104 803.036 424.581L803.643 426.165C797.312 428.991 794.581 432.092 787.233 430.659L784.807 424.326Z" fill="white"/>
<path fill-rule="evenodd" clip-rule="evenodd" d="M222.206 673.293L236.715 667.713L222.156 629.712L207.932 635.182L207.928 635.17C203.806 620.222 201.217 604.51 199.795 586.09C196.621 544.956 201.801 503.619 215.008 464.572L227.265 470.04L243.789 432.855L230.588 426.966C225.178 437.902 220.415 449.178 216.333 460.737C215.883 462.013 215.441 463.291 215.008 464.572M373.182 286.64L377.488 297.879L415.415 283.292L410.978 271.71C402.52 274.414 394.169 277.491 385.949 280.938C381.646 282.742 377.389 284.644 373.182 286.64ZM776.792 427.408C782.784 439.569 787.972 452.139 792.312 465.039L778.821 470.228L764.263 432.227L776.792 427.408Z" fill="white"/>
<path d="M733.542 362.276C710.877 336.151 683.981 314.122 654.039 297.086L649.03 308.359L611.916 291.803L617.435 279.383C583.27 265.593 546.847 258.106 509.93 257.336C476.32 256.634 442.889 261.51 410.978 271.71L415.415 283.292L377.488 297.879L373.182 286.64C339.036 302.84 308.156 325.281 282.148 352.85C261.342 374.906 243.981 399.896 230.588 426.966L243.789 432.855L227.265 470.04L215.008 464.572C201.801 503.619 196.621 544.956 199.795 586.09C201.217 604.51 203.806 620.222 207.928 635.17L207.932 635.182L222.156 629.712L236.715 667.713L222.206 673.293C225.341 680.011 228.842 686.91 232.743 694.161H295.374C279.184 664.066 262.467 615.524 259.836 581.438C257.205 547.351 261.725 513.091 273.106 480.86C284.486 448.629 302.474 419.142 325.913 394.296C349.351 369.45 377.722 349.796 409.198 336.597C440.675 323.398 474.56 316.947 508.675 317.659C542.79 318.372 576.378 326.232 607.278 340.733C638.178 355.234 665.707 376.056 688.092 401.859C710.477 427.662 727.223 457.874 737.253 490.552L794.813 472.816C794.032 470.271 793.218 467.738 792.372 465.217L792.312 465.039L778.821 470.228L764.263 432.227L776.792 427.408C765.252 403.989 750.731 382.09 733.542 362.276Z" fill="white"/>
</svg>
